<svg xmlns="http://www.w3.org/2000/svg" viewBox="0 0 71 63"><path d="M53.7 62.1l.4.2.4-.2c2.4-1.2 3.9-3.5 4.2-6.2 1.3.5 2.8.8 4.4.8h.5L70 48s-1.8.5-3.8.5c-1.1 0-2.4-.3-3.4-1.1-1.1-.9-1.7-2.4-1.7-4.4-.1-4-.2-7.7-.2-11.5 0-3.7.1-7.1.2-10.6l.1-.9c.1-2 .6-3.5 1.7-4.4 1-.8 2.3-1.1 3.4-1.1 1.5 0 3.7.5 3.7.5l-6.4-8.7h-.5c-1.7 0-3.1.3-4.4.8-.3-2.7-1.9-4.9-4.2-6.2l-.4-.2-.4.2c-2.4 1.2-3.9 3.5-4.2 6.2-1.3-.5-2.8-.8-4.4-.8h-.5L38.2 15s1.8-.5 3.7-.5c1.4 0 2.6.4 3.4 1.1 1.1.9 1.7 2.4 1.7 4.4v.7c0 1 .1 1.9.1 2.9-4.3.7-8.2 1.7-11.6 3.2-3.4-1.4-7.3-2.5-11.6-3.2 0-1 .1-1.9.1-2.9V20c.1-2 .6-3.5 1.7-4.4.8-.7 2-1.1 3.4-1.1 1.9 0 3.7.5 3.7.5l-6.4-8.7H26c-1.7 0-3.1.3-4.4.8-.3-2.7-1.9-4.9-4.2-6.2L17 .7l-.4.2c-2.4 1.2-3.9 3.5-4.2 6.2-1.3-.5-2.8-.8-4.4-.8h-.7L.9 15s2.2-.5 3.7-.5c1.2 0 2.4.2 3.4 1.1 1.1.9 1.7 2.4 1.7 4.4v.9c.1 3.5.2 6.9.2 10.6 0 3.9-.1 7.5-.2 11.5-.1 2-.6 3.5-1.7 4.4-1 .8-2.2 1.1-3.4 1.1-2 0-3.8-.5-3.8-.5l6.4 8.7h.5c1.7 0 3.1-.3 4.4-.8.3 2.7 1.9 4.9 4.2 6.2l.4.2.4-.2c2.4-1.2 3.9-3.5 4.2-6.2 1.3.5 2.8.8 4.4.8h.5l6.4-8.7s-1.7.5-3.7.5c-1.2 0-2.4-.2-3.4-1.1-1.1-.9-1.7-2.4-1.7-4.4-.1-2.7-.2-6.3-.2-9.6l1.2.3c4.1.9 7.6 2.3 9.9 4l.6.4.6-.4c2.3-1.6 5.8-3 9.9-4l1.2-.3c0 3.3-.1 6.9-.2 9.6-.1 2-.6 3.5-1.7 4.4-1 .8-2.3 1.1-3.4 1.1-2 0-3.7-.5-3.7-.5l6.4 8.7h.6c1.7 0 3.1-.3 4.4-.8.4 2.7 1.9 5 4.3 6.2" fill="#333533"/><path d="M59.4 43.1c-.2-4-.2-7.7-.2-11.6 0-4.1.2-9.5.2-11.6.1-2.6 1.1-4.7 2.4-5.8 1.1-.9 2.5-1.4 4.2-1.5l-3.2-4.3c-4.8.2-7.7 3-7.7 7.5v31.5c0 4.5 2.9 7.3 7.7 7.5l3.2-4.3c-1.7-.1-3.1-.6-4.2-1.5-1.6-1.4-2.4-3.3-2.4-5.9m-5.3-31.8c.6-1.3 1.6-2.4 2.8-3.3-.1-3-1.8-4.5-2.8-5.2-1 .6-2.8 2.2-2.8 5.2 1.2.9 2.2 2 2.8 3.3m-37.2 0c.6-1.3 1.6-2.4 2.8-3.3-.1-3-1.8-4.5-2.8-5.2-1 .6-2.8 2.2-2.8 5.2 1.2.9 2.1 2 2.8 3.3m-1 4.4c0-4.5-2.9-7.3-7.7-7.5L5 12.6c1.7.1 3.1.6 4.2 1.5 1.3 1.1 2.4 3.2 2.4 5.8.1 2.2.2 7.5.2 11.6 0 3.9-.1 7.6-.2 11.6-.1 2.6-.9 4.5-2.4 5.8-1.1.9-2.5 1.4-4.2 1.5l3.2 4.3c4.8-.2 7.7-3 7.7-7.5V15.7zm1 36c-.6 1.3-1.6 2.4-2.8 3.3.1 3 1.8 4.5 2.8 5.2 1-.6 2.8-2.2 2.8-5.2-1.2-.9-2.2-2-2.8-3.3m36.3-36c0-4.5-2.9-7.3-7.7-7.5l-3.2 4.3c1.7.1 3.1.6 4.2 1.5 1.5 1.3 2.3 3.2 2.4 5.8v.7c0 1.3.1 2.3.1 3.8v.9l-.8.1c-4.6.7-8.7 1.8-12.3 3.3l-.4.2-.4-.2c-3.6-1.6-7.8-2.7-12.3-3.3l-.8-.1v-.9c0-1.4.1-2.5.1-3.8v-.7c.1-2.6.9-4.5 2.4-5.8 1.1-.9 2.6-1.4 4.2-1.5l-3.2-4.3c-4.8.2-7.7 3-7.7 7.5v31.5c0 4.5 2.9 7.3 7.7 7.5l3.2-4.3c-1.7-.1-3.1-.6-4.2-1.5-1.5-1.3-2.3-3.2-2.4-5.8-.1-3.1-.2-7.2-.2-10.8v-1.1l1.1.2c.8.1 1.6.3 2.4.5 4 .9 7.6 2.3 10.1 3.9 2.5-1.6 6-3 10.1-3.9.8-.2 1.6-.3 2.4-.5l1.1-.2v1.1c0 3.6-.1 7.8-.2 10.8-.1 2.6-.9 4.5-2.4 5.8-1.1.9-2.5 1.4-4.2 1.5l3.2 4.3c4.8-.2 7.7-3 7.7-7.5V15.7zm.9 36c-.6 1.3-1.6 2.4-2.8 3.3.1 3 1.8 4.5 2.8 5.2 1-.6 2.8-2.2 2.8-5.2-1.2-.9-2.1-2-2.8-3.3" fill="#fff7f0"/></svg>