<?xml version="1.0" encoding="utf-8"?>
<!-- Generator: Adobe Illustrator 25.4.1, SVG Export Plug-In . SVG Version: 6.00 Build 0)  -->
<svg version="1.1" id="Layer_1" xmlns="http://www.w3.org/2000/svg" xmlns:xlink="http://www.w3.org/1999/xlink" x="0px" y="0px"
	 viewBox="0 0 150 135" style="enable-background:new 0 0 150 135;" xml:space="preserve">
<style type="text/css">
	.st0{fill:#343434;}
	.st1{fill:#F2EBD1;}
</style>
<path class="st1" d="M133.8,101.6c-2.3-1.9-3.6-5.1-3.7-9.4c-0.3-8.6-0.5-16.4-0.5-24.7c0-8,0.1-15.2,0.4-22.7l0.1-2
	c0.1-4.3,1.4-7.4,3.7-9.4c2.1-1.8,4.8-2.3,7.3-2.3c3.2,0,7.9,1,7.9,1l-13.7-18.5h-1h0c-3.5,0-6.7,0.6-9.5,1.7
	c-0.7-5.7-4-10.5-9.1-13.2l-0.9-0.5l-0.9,0.5c-5.1,2.6-8.4,7.4-9.1,13.2c-2.8-1.1-6-1.7-9.5-1.7h-1L80.6,32.1c0,0,3.9-1,7.9-1
	c3,0,5.5,0.8,7.3,2.3c2.3,1.9,3.6,5.1,3.7,9.4l0.1,1.6c0.1,2.2,0.1,4,0.2,6.2C90.7,52,82.4,54.3,75,57.4c-7.4-3.1-15.7-5.4-24.8-6.8
	c0.1-2.2,0.1-4,0.2-6.2l0.1-1.6c0.1-4.3,1.4-7.4,3.7-9.4c1.8-1.5,4.4-2.3,7.3-2.3c4,0,7.9,1,7.9,1L55.7,13.6h-1
	c-3.5,0-6.7,0.6-9.5,1.7c-0.7-5.7-4-10.5-9.1-13.1l-0.9-0.5l-0.9,0.5c-5.1,2.6-8.4,7.4-9.1,13.2c-2.8-1.1-6-1.7-9.5-1.7c0,0,0,0,0,0
	h-1L1,32.1c0,0,4.8-1,7.9-1c2.5,0,5.2,0.5,7.3,2.3c2.3,1.9,3.6,5.1,3.7,9.4l0.1,2c0.3,7.5,0.4,14.7,0.4,22.7
	c0,8.3-0.1,16.1-0.5,24.7c-0.1,4.3-1.4,7.5-3.7,9.4c-2.1,1.7-4.7,2.3-7.2,2.3c-4.2,0-8-1-8-1l13.7,18.5h1h0c3.5,0,6.7-0.6,9.5-1.7
	c0.7,5.7,4,10.5,9.1,13.2l0.9,0.5l0.9-0.5c5.1-2.6,8.4-7.4,9.1-13.2c2.8,1.1,6,1.7,9.5,1.7h1l13.7-18.5c0,0-3.7,1-7.9,1
	c-2.5,0-5.2-0.5-7.3-2.3c-2.3-1.9-3.6-5.1-3.7-9.4c-0.2-5.8-0.4-13.5-0.4-20.5c0.9,0.2,1.7,0.3,2.5,0.5c8.8,2,16.3,5,21.2,8.5
	l1.2,0.8l1.2-0.8c4.9-3.5,12.5-6.5,21.2-8.5c0.8-0.2,1.7-0.4,2.5-0.5c-0.1,7.1-0.2,14.7-0.4,20.5c-0.1,4.3-1.4,7.4-3.7,9.4
	c-2.1,1.8-4.8,2.3-7.3,2.3c-4.3,0-7.9-1-7.9-1l13.7,18.5h1c3.5,0,6.7-0.6,9.5-1.7c0.7,5.7,4,10.5,9.1,13.2l0.9,0.5l0.9-0.5
	c5.1-2.6,8.4-7.4,9.1-13.2c2.8,1.1,6,1.7,9.5,1.7h1l13.7-18.5c0,0-3.8,1-8,1C138.5,103.9,135.9,103.3,133.8,101.6z M114.8,6.3
	L114.8,6.3L114.8,6.3c0.5,0.3,1.2,0.8,1.8,1.4c1.5,1.4,3,3.4,3.8,6.4c0.2,1,0.4,2,0.5,3.2c-2.6,1.8-4.7,4.1-6,7c0,0,0,0,0,0
	c0,0,0,0,0,0c-1.4-2.9-3.4-5.2-6-7C108.9,11,112.7,7.7,114.8,6.3z M35.2,6.3L35.2,6.3L35.2,6.3c1.9,1.2,5,3.9,5.8,8.8
	c0.1,0.7,0.2,1.4,0.2,2.2c-2.6,1.8-4.7,4.1-6,7c0,0,0,0,0,0c0,0,0,0,0,0c-0.3-0.7-0.7-1.4-1.2-2c-1.3-1.9-2.9-3.6-4.9-4.9
	C29.3,11,33.1,7.7,35.2,6.3z M25,115.3c-0.9,0.5-1.9,0.9-3,1.2c-1.6,0.5-3.4,0.7-5.3,0.8l0,0l0,0L9.9,108c3.6-0.2,6.6-1.3,9-3.2
	c1.2-1,2.2-2.2,3-3.7c1.3-2.4,2-5.3,2.1-8.7c0.2-4.3,0.3-8.4,0.4-12.5c0.1-4.1,0.1-8.1,0.1-12.3c0-5.5-0.1-12-0.3-17.3
	c0-0.5,0-1,0-1.5c0-1,0-1.9-0.1-2.8c0-0.4,0-0.8,0-1.2c0-0.8,0-1.5-0.1-2c0-0.7-0.1-1.4-0.1-2.1c-0.6-4.6-2.5-8.3-5-10.4
	c-1.2-1-2.5-1.8-4-2.3s-3.2-0.9-4.9-0.9l6.8-9.3l0,0l0,0c1.9,0.1,3.7,0.3,5.3,0.8c1.1,0.3,2.1,0.7,3,1.2c5.2,2.6,8.1,7.5,8.1,14.1
	v67.4C33.1,107.8,30.2,112.7,25,115.3z M41,119.9c-0.8,4.9-4,7.6-5.8,8.8v0v0c-2.1-1.4-5.9-4.7-6-11c2-1.3,3.6-3,4.9-4.9
	c0.4-0.6,0.8-1.3,1.2-2c0,0,0,0,0,0c0,0,0,0,0,0c1.4,2.9,3.4,5.2,6,7C41.2,118.4,41.1,119.2,41,119.9z M104.6,115.3
	c-0.9,0.5-1.9,0.9-3,1.2c-1.6,0.5-3.4,0.7-5.3,0.8l0,0l0,0l-2.3-3.1l-4.6-6.2c3-0.1,5.6-1,7.7-2.4c0.4-0.3,0.9-0.5,1.3-0.9
	c3.3-2.7,5-6.9,5.2-12.4c0.2-4.1,0.3-9.1,0.4-14.2c0-3,0.1-6.1,0.1-9l0-2.5l-1.2,0.2l-1.2,0.2c-0.9,0.2-1.7,0.3-2.6,0.5
	c-0.9,0.2-1.7,0.3-2.6,0.5c-8.6,2-16.2,4.9-21.5,8.3c-5.3-3.5-12.9-6.4-21.5-8.3c-0.6-0.1-1.2-0.2-1.7-0.3c-1.1-0.2-2.3-0.5-3.4-0.7
	l-2.4-0.4l0,2.5c0,1.9,0,3.9,0.1,6c0.1,6.1,0.2,12.3,0.4,17.2c0.2,5.5,1.9,9.7,5.2,12.4c0.6,0.5,1.2,0.9,1.9,1.3
	c2,1.2,4.4,1.8,7.1,1.9l-4.1,5.6l-2.7,3.7l0,0l0,0c-1.3,0-2.5-0.2-3.6-0.4c-0.6-0.1-1.1-0.2-1.7-0.4c-7-2-11.1-7.5-11.1-15.3V33.8
	c0-7.8,4.1-13.3,11.1-15.3c0.5-0.2,1.1-0.3,1.7-0.4c1.1-0.2,2.4-0.4,3.6-0.4l0,0l0,0l2.7,3.7l4.1,5.6c-2.7,0.1-5.1,0.8-7.1,1.9
	c-0.7,0.4-1.3,0.8-1.9,1.3c-3.3,2.7-5,6.9-5.2,12.4l-0.1,1.6c-0.1,2.8-0.2,5-0.3,8.1l0,1.8l1.8,0.3c9.8,1.4,18.7,3.8,26.4,7.1
	l0.8,0.4l0.8-0.4c7.7-3.3,16.6-5.7,26.4-7.1l1.4-0.2l0.4-0.1l0-0.6l0-1.2c0-2.3-0.1-4.1-0.2-6.1c0-0.6,0-1.3-0.1-2l-0.1-1.6
	c-0.2-5.5-1.9-9.7-5.2-12.4c-0.6-0.5-1.2-0.9-1.9-1.3c-2-1.2-4.4-1.8-7.1-1.9l4.6-6.2l2.3-3.1l0,0l0,0c1.9,0.1,3.7,0.3,5.3,0.8
	c1.1,0.3,2.1,0.7,3,1.2c5.2,2.6,8.1,7.5,8.1,14.1v67.4C112.7,107.8,109.8,112.7,104.6,115.3z M120.4,120.9c-0.7,3-2.3,5-3.8,6.4
	c-0.7,0.6-1.3,1.1-1.8,1.4v0v0c-2.1-1.4-5.9-4.7-6-11c2.6-1.8,4.6-4.1,6-7c0,0,0,0,0,0c0,0,0,0,0,0c1.4,2.9,3.4,5.2,6,7
	C120.8,118.8,120.6,119.9,120.4,120.9z M133.3,117.3c-1.3,0-2.5-0.2-3.6-0.4c-8-1.6-12.8-7.3-12.8-15.7V33.8
	c0-8.4,4.8-14.1,12.8-15.7c1.1-0.2,2.4-0.4,3.6-0.4l6.9,9.3c-3,0.1-5.5,1-7.7,2.4c-0.4,0.3-0.9,0.5-1.3,0.9c-2.9,2.4-5,6.8-5.2,12.4
	c-0.1,3.7-0.3,12-0.4,19.7c0,1.8,0,3.5,0,5.1c0,4.2,0,8.2,0.1,12.3c0.1,4.1,0.2,8.2,0.4,12.5c0,1.4,0.2,2.7,0.4,3.9
	c0.1,0.6,0.3,1.2,0.4,1.8c0.8,2.8,2.3,5.1,4.3,6.8c2.4,2,5.4,3.1,9,3.2L133.3,117.3z"/>
</svg>
