<?xml version="1.0" encoding="utf-8"?>
<!-- Generator: Adobe Illustrator 25.4.1, SVG Export Plug-In . SVG Version: 6.00 Build 0)  -->
<svg version="1.1" id="Layer_1" xmlns="http://www.w3.org/2000/svg" xmlns:xlink="http://www.w3.org/1999/xlink" x="0px" y="0px"
	 viewBox="0 0 185 178.7" style="enable-background:new 0 0 185 178.7;" xml:space="preserve">
<style type="text/css">
	.st0{fill:#F2EBD1;}
</style>
<g>
	<path class="st0" d="M22.4,48.3c0.3,0.1,0.5,0.3,0.8,0.4c3.3,1.7,6.4,3.5,9.4,5.3l2.2-3.5c-3.1-1.4-6.4-3-9.7-4.8s-6.4-3.5-9.4-5.3
		L13.6,44c1.9,0.9,3.9,1.9,5.9,2.9c-0.6,1.3-1.3,2.6-1.9,3.9c-0.7,1.3-1.4,2.5-2.1,3.8c-1.9-1.1-3.8-2.2-5.6-3.3L8,54.9
		c3.1,1.4,6.4,3,9.7,4.8s6.4,3.5,9.4,5.3l1.8-3.8c-3.1-1.4-6.4-3-9.7-4.8c-0.3-0.2-0.6-0.3-0.8-0.5c0.6-1.3,1.3-2.6,2-3.9
		C21,50.8,21.7,49.6,22.4,48.3z"/>
	<path class="st0" d="M55.3,31.9L59,30c-1.7-3-3.5-6.2-5.1-9.5c-1.7-3.3-3.2-6.6-4.6-9.7l-3.7,1.9c1.7,3,3.5,6.2,5.1,9.5
		C52.4,25.4,54,28.7,55.3,31.9z"/>
	<path class="st0" d="M49.4,35.5l-2.1-2.3c-2.1,2.2-3.9,4.1-6.3,6.3c-0.3,0.3-0.6,0.5-0.9,0.8c-1.7-1.7-3.5-3.4-5.2-5.2
		c0,0,0.1-0.1,0.1-0.1c2.4-2.2,4.7-4.3,7.1-6.3l-2.5-2.7c-2.1,2.2-4.3,4.5-6.7,6.7c0,0,0,0-0.1,0.1c-1.2-1.3-2.4-2.7-3.6-4
		c0.2-0.2,0.3-0.3,0.5-0.5c2.4-2.2,4-3.6,6.3-5.6l-2.1-2.3l-6.5,6.2l0,0l-3,2.9c2.5,2.4,5.1,4.9,7.6,7.6c2.5,2.7,4.9,5.4,7.2,8
		l1.6-1.5l0,0L49.4,35.5z"/>
	<path class="st0" d="M97.6,20c-0.4,0-0.8-0.1-1.2-0.1c0.1-2.6,0.1-5.2,0.3-7.9c0.2-3.7,0.6-7.3,1-10.7L93.6,1
		c0,3.5-0.1,7.1-0.4,10.8c-0.2,3.7-0.6,7.3-1,10.7l2.2,0.1l0,0l12,0.9l0.2-3.3C103.5,20.2,100.9,20.2,97.6,20z"/>
	<path class="st0" d="M174.6,49.8c-3.9,0.6-8.4,1.2-12.5,1.7c-1,0.1-2,0.2-3,0.3c0.6-0.9,1.3-1.9,1.9-2.8c2.3-3.3,5-6.8,7.3-9.9
		l-2.8-3.9c-2.9,1.9-5.9,3.8-9.1,5.7c-3.2,1.9-6.4,3.6-9.4,5.2l2.2,2.9c2.9-1.9,5.6-3.6,8.8-5.5c1.4-0.8,2.8-1.6,4.2-2.4
		c-1.3,1.9-2.6,3.8-4,5.8c-1.3,1.8-2.5,3.6-3.8,5.3c-0.7,1-0.8,1.1-1.5,2.1l0.8,1.4c1.4-0.2,1.7-0.2,3.1-0.4
		c1.9-0.2,3.8-0.5,5.7-0.7c2.5-0.3,4.9-0.5,7.3-0.7c-1.4,0.9-2.8,1.7-4.2,2.6c-3.2,1.9-5.9,3.4-9,5l1.7,3.8c2.9-1.9,5.9-3.9,9.1-5.7
		c3.2-1.9,6.4-3.6,9.4-5.2L174.6,49.8z"/>
	<path class="st0" d="M78.2,14.2c-0.1-0.2-0.2-0.3-0.3-0.4c1.9-1.2,3-3.1,2.6-6c-0.7-4.5-4.7-5.5-9.4-4.4l0,0l-3.3,0.8l-4.1,1
		c0.9,3.3,1.7,6.9,2.4,10.5c0.7,3.6,1.3,7.2,1.8,10.6l4-1.1c-0.8-2.9-1.4-5.8-2.1-8.9c0.1,0,0.2,0,0.3-0.1c1.5-0.3,2.9-0.6,4.4-0.9
		c0.2,0.3,0.5,0.7,0.7,1c1.8,2.5,3.2,4.8,4.8,7.2l4.7-0.6v0C82.6,20.1,80.3,17.3,78.2,14.2z M69.5,13.1c-0.1,0-0.1,0-0.2,0
		C68.9,11.1,68.5,9,68.2,7c0.2,0,0.4-0.1,0.5-0.1c1.1-0.3,2.1-0.5,3-0.7l0,0c3-0.6,4.8,0.2,5.2,2.1c0.5,2.3-1.1,3.4-2.6,3.7
		C72.7,12.4,71,12.7,69.5,13.1z"/>
	<path class="st0" d="M126.5,6.5c-3.3-1.3-9.3-1.6-12.7,6.8c-2.8,7,0.2,12,4.4,13.7c4.2,1.7,9.8,0.2,12.7-6.8
		C134.3,11.7,129.8,7.8,126.5,6.5z M127.1,18.6c-2,5.1-4.6,6.8-7.7,5.6c-3.1-1.2-3.7-4.3-1.7-9.4c2.5-6.1,5.3-6.6,7.7-5.6
		C127.8,10.2,129.6,12.5,127.1,18.6z"/>
	<path class="st0" d="M150.4,19.6c-2.9-2.1-8.6-3.8-13.9,3.6c-4.4,6.1-2.7,11.7,1,14.3c3.7,2.7,9.5,2.5,13.9-3.6
		C156.8,26.5,153.3,21.7,150.4,19.6z M148,31.5c-3.2,4.5-6.1,5.5-8.8,3.6c-2.7-1.9-2.6-5,0.6-9.5c3.9-5.4,6.7-5.1,8.8-3.6
		C150.7,23.5,151.9,26.1,148,31.5z"/>
	<path class="st0" d="M24.2,149.1l2.9,3c2.4-2.5,4.9-5.1,7.6-7.6c2.7-2.5,5.4-4.9,8.1-7.2l-2.9-3c-2.4,2.5-4.9,5.1-7.6,7.6
		S26.8,146.9,24.2,149.1z"/>
	<path class="st0" d="M108.3,176.8l-0.2-3.1c-3,0.4-5.6,0.7-8.9,0.9c-0.4,0-0.8,0-1.2,0.1c-0.3-2.4-0.5-4.8-0.7-7.4c0,0,0.1,0,0.1,0
		c3.3-0.2,6.4-0.4,9.5-0.4l-0.3-3.7c-3,0.4-6.2,0.7-9.4,0.9c0,0-0.1,0-0.1,0c-0.1-1.8-0.2-3.6-0.2-5.3c0.2,0,0.5,0,0.7-0.1
		c3.3-0.2,5.4-0.3,8.4-0.3l-0.2-3.1l-10.9,0.8l0,0l-2.2,0.2c0.4,3.4,0.8,7,1.1,10.7c0.3,3.7,0.4,7.3,0.4,10.8l2.2-0.2v0L108.3,176.8
		z"/>
	<path class="st0" d="M149.4,147.3c0.3,0.1,0.6,0.3,0.9,0.4c2.8,1.3,5.7,2.7,8.3,4l3.1-3.3c-3.2-1.2-6.5-2.4-9.9-4
		c-0.1,0-0.2-0.1-0.3-0.1c1-2,1.1-4.3-0.8-6.3c-3.2-3.4-6.7-2.4-10.2,0.8l0,0l-0.2,0.2c0,0,0,0,0,0l0,0l-3.9,3.6l0,0l-1.7,1.5
		c2.5,2.4,5,5,7.5,7.8c2.5,2.8,4.8,5.4,6.9,8.1l3.3-2.6c-2.1-2.1-4.4-4.4-6.5-6.8c0.1,0,0.1-0.1,0.2-0.1
		C147.1,149.3,148.2,148.3,149.4,147.3z M139.6,143.4c0.2-0.2,0.4-0.4,0.6-0.5c0.8-0.7,1.5-1.3,2.2-1.9l0,0c2.3-2,4.2-2.2,5.5-0.8
		c1.6,1.7,0.7,3.5-0.4,4.6l-0.4,0.4c-1.1,1-2.2,2-3.2,3c0,0-0.1,0.1-0.1,0.1C142.2,146.6,140.9,145,139.6,143.4z"/>
	<path class="st0" d="M31.6,122.9l-2.2-3.5c-2.8,2-5.8,4-9,5.9c-3.2,2-6.3,3.8-9.3,5.4l2.2,3.5l0,0l5.3,8.5l2.7-1.6
		c-1.8-2.5-3.2-4.7-4.9-7.5c-0.2-0.3-0.4-0.7-0.6-1c2.1-1.5,4.3-2.9,6.6-4.3C25.4,126.3,28.6,124.5,31.6,122.9z"/>
	<path class="st0" d="M55,146.4c-2.9-1.9-8.7-3.5-13.8,4.1c-3.6,5.4-2.7,10.2,0.1,13.1c-0.9,1.2-1.8,2.5-2.7,3.7l3.5,2.3
		c0.7-1.3,1.6-2.6,2.4-3.9c3.7,1.4,8.5,0.4,12.1-5C61.6,153,57.9,148.3,55,146.4z M53.1,158.3c-2.6,3.8-5,5.3-7.3,4.5
		c-0.1,0-0.3-0.1-0.4-0.1c-0.3-0.1-0.6-0.3-0.9-0.5c-0.3-0.2-0.6-0.4-0.8-0.7c-0.1-0.1-0.2-0.2-0.3-0.3c-1.6-1.9-1.2-4.7,1.3-8.5
		c3.7-5.5,6.5-5.3,8.6-3.9C55.5,150.3,56.7,152.8,53.1,158.3z"/>
	<path class="st0" d="M160.8,128c-1.9,0.9-3.9,1.9-5.2,1.1c-0.8-0.5-1.2-1.6-0.1-3.4c0.4-0.6,2.4-2.7,5-3.8l-4.1-1.9
		c-0.7,1.2-2.5,2.6-3.4,4.1c-3.3,5-0.2,7.6,0.9,8.3c2.6,1.7,5.8,0.3,8.5-0.9c2.1-0.9,4.6-1.7,5.7-1c1.2,0.8,1.7,2.2,0.3,4.4l0,0
		c-0.7,1-3.5,3.1-6.1,4l4.5,2.2c0.9-1,2.8-2.5,4.2-4.5l0,0l0,0c2.4-3.6,2-7.3-1.2-9.3C166.9,125.2,163.7,126.7,160.8,128z"/>
	<path class="st0" d="M135.8,163.4c0,0-1.2-2.2-2.6-5.3c-1.6-3.4-3.2-7.2-4.5-10.4l-3.7,1.8c1.6,3,3,5.7,4.6,9.1
		c2.4,5.2,2.1,8.5-1.4,9.9c-3.5,1.4-5.7-0.5-7.7-5.9c-1.3-3.5-2.4-6.6-3.4-9.9l-3.9,1.2c1.4,3.2,3.1,7.4,4.4,10.9
		c1.2,3.2,1.9,5.5,1.9,5.5c3.9,0.6,6.6,2.3,10.1,0.9C133,169.7,133.5,166.6,135.8,163.4"/>
	<path class="st0" d="M81.3,173.4c0,0,0.4-2.5,1-5.9c0.7-3.6,1.6-8.1,2.4-11.4l-4.1-0.5c-0.4,3.4-0.9,6.6-1.6,10.3
		c-1.1,5.7-3.3,8.1-6.9,7.3c-3.6-0.9-4.4-3.7-3-9.3c1-3.6,1.9-6.7,3-10l-3.9-1.2c-0.7,3.4-1.8,7.7-2.7,11.3
		c-0.9,3.3-1.5,5.6-1.5,5.6c2.8,2.8,4,5.7,7.7,6.6C75.4,176.9,77.5,174.7,81.3,173.4"/>
	<path class="st0" d="M131.1,112.2c-1.5-1.3-2.3-3.3-2.4-6.2c-0.2-5.6-0.3-10.8-0.3-16.2c0-5.2,0.1-10,0.2-14.9l0.1-1.3
		c0.1-2.8,0.9-4.9,2.4-6.1c1.4-1.2,3.2-1.5,4.8-1.5c2.1,0,5.2,0.6,5.2,0.6l-9-12.1h-0.7h0c-2.3,0-4.4,0.4-6.2,1.1
		c-0.5-3.8-2.6-6.9-5.9-8.6l-0.6-0.3l-0.6,0.3c-3.3,1.7-5.5,4.9-5.9,8.6c-1.8-0.7-3.9-1.1-6.2-1.1h-0.7l-9,12.1c0,0,2.6-0.6,5.2-0.6
		c2,0,3.6,0.5,4.8,1.5c1.5,1.3,2.3,3.3,2.4,6.2l0,1c0.1,1.4,0.1,2.6,0.1,4c-6,0.9-11.4,2.4-16.3,4.5c-4.8-2-10.3-3.5-16.3-4.5
		c0-1.4,0.1-2.6,0.1-4l0-1c0.1-2.8,0.9-4.9,2.4-6.2c1.2-1,2.9-1.5,4.8-1.5c2.6,0,5.2,0.6,5.2,0.6l-9-12.1h-0.7
		c-2.3,0-4.4,0.4-6.2,1.1c-0.5-3.8-2.6-6.9-5.9-8.6l-0.6-0.3l-0.6,0.3c-3.3,1.7-5.5,4.9-5.9,8.6c-1.8-0.7-3.9-1.1-6.2-1.1
		c0,0,0,0,0,0h-0.7l-9,12.1c0,0,3.1-0.6,5.2-0.6c1.6,0,3.4,0.3,4.8,1.5c1.5,1.3,2.3,3.3,2.4,6.1l0.1,1.3c0.2,4.9,0.2,9.6,0.2,14.9
		c0,5.4-0.1,10.6-0.3,16.2c-0.1,2.8-0.9,4.9-2.4,6.2c-1.4,1.1-3.1,1.5-4.7,1.5c-2.7,0-5.3-0.6-5.3-0.6l9,12.1h0.7h0
		c2.3,0,4.4-0.4,6.2-1.1c0.5,3.8,2.6,6.9,5.9,8.6l0.6,0.3l0.6-0.3c3.3-1.7,5.5-4.9,5.9-8.6c1.8,0.7,3.9,1.1,6.2,1.1H80l9-12.1
		c0,0-2.4,0.6-5.2,0.6c-1.6,0-3.4-0.3-4.8-1.5c-1.5-1.3-2.3-3.3-2.4-6.1c-0.1-3.8-0.2-8.8-0.3-13.5c0.6,0.1,1.1,0.2,1.7,0.4
		c5.7,1.3,10.7,3.3,13.9,5.6l0.8,0.6l0.8-0.6c3.2-2.3,8.2-4.3,13.9-5.6c0.5-0.1,1.1-0.2,1.7-0.4c0,4.6-0.1,9.6-0.3,13.5
		c-0.1,2.8-0.9,4.9-2.4,6.1c-1.4,1.2-3.2,1.5-4.8,1.5c-2.8,0-5.2-0.6-5.2-0.6l9,12.1h0.7c2.3,0,4.4-0.4,6.2-1.1
		c0.5,3.8,2.6,6.9,5.9,8.6l0.6,0.3l0.6-0.3c3.3-1.7,5.5-4.9,5.9-8.6c1.8,0.7,3.9,1.1,6.2,1.1h0.7l9-12.1c0,0-2.5,0.6-5.3,0.6
		C134.3,113.8,132.5,113.4,131.1,112.2z M118.7,49.8L118.7,49.8L118.7,49.8c0.3,0.2,0.8,0.5,1.2,0.9c1,0.9,2,2.3,2.5,4.2
		c0.2,0.6,0.3,1.3,0.3,2.1c-1.7,1.2-3,2.7-4,4.6c0,0,0,0,0,0c0,0,0,0,0,0c-0.9-1.9-2.2-3.4-4-4.6C114.8,52.9,117.3,50.7,118.7,49.8z
		 M66.5,49.8L66.5,49.8L66.5,49.8c1.2,0.8,3.3,2.5,3.8,5.8c0.1,0.5,0.1,0.9,0.1,1.5c-1.7,1.2-3,2.7-4,4.6c0,0,0,0,0,0c0,0,0,0,0,0
		c-0.2-0.5-0.5-0.9-0.8-1.3c-0.8-1.3-1.9-2.4-3.2-3.2C62.7,52.9,65.1,50.7,66.5,49.8z M59.9,121.2c-0.6,0.3-1.3,0.6-2,0.8
		c-1.1,0.3-2.2,0.5-3.5,0.5l0,0l0,0l-4.5-6.1c2.3-0.1,4.3-0.8,5.9-2.1c0.8-0.7,1.5-1.5,2-2.4c0.9-1.6,1.3-3.5,1.4-5.7
		c0.1-2.8,0.2-5.5,0.2-8.2c0.1-2.7,0.1-5.3,0.1-8.1c0-3.6-0.1-7.9-0.2-11.3c0-0.3,0-0.7,0-1c0-0.7,0-1.3,0-1.8c0-0.3,0-0.5,0-0.8
		c0-0.5,0-1,0-1.3c0-0.5,0-0.9-0.1-1.3c-0.4-3-1.7-5.4-3.3-6.8c-0.8-0.6-1.7-1.2-2.7-1.5c-1-0.4-2.1-0.6-3.2-0.6l4.5-6.1l0,0l0,0
		c1.2,0,2.4,0.2,3.5,0.5c0.7,0.2,1.4,0.5,2,0.8c3.4,1.7,5.3,4.9,5.3,9.3V112C65.2,116.3,63.2,119.6,59.9,121.2z M70.3,124.3
		c-0.5,3.2-2.6,5-3.8,5.8v0v0c-1.4-0.9-3.9-3.1-4-7.2c1.3-0.9,2.4-2,3.2-3.2c0.3-0.4,0.5-0.9,0.8-1.3c0,0,0,0,0,0c0,0,0,0,0,0
		c0.9,1.9,2.2,3.4,4,4.6C70.5,123.3,70.4,123.8,70.3,124.3z M112,121.2c-0.6,0.3-1.3,0.6-2,0.8c-1.1,0.3-2.2,0.5-3.5,0.5l0,0l0,0
		l-1.5-2l-3-4.1c1.9-0.1,3.6-0.6,5.1-1.5c0.3-0.2,0.6-0.4,0.8-0.6c2.1-1.8,3.3-4.5,3.4-8.1c0.1-2.7,0.2-6,0.2-9.3c0-2,0.1-4,0.1-5.9
		l0-1.6l-0.8,0.1l-0.8,0.1c-0.6,0.1-1.1,0.2-1.7,0.3c-0.6,0.1-1.1,0.2-1.7,0.3c-5.6,1.3-10.6,3.2-14.1,5.5
		c-3.5-2.3-8.5-4.2-14.1-5.5c-0.4-0.1-0.8-0.1-1.1-0.2c-0.7-0.2-1.5-0.3-2.3-0.4l-1.6-0.3l0,1.6c0,1.3,0,2.6,0,3.9
		c0.1,4,0.1,8,0.3,11.3c0.1,3.6,1.2,6.3,3.4,8.1c0.4,0.3,0.8,0.6,1.3,0.9c1.3,0.8,2.9,1.2,4.6,1.3l-2.7,3.7l-1.8,2.4l0,0l0,0
		c-0.8,0-1.6-0.1-2.4-0.3c-0.4-0.1-0.7-0.2-1.1-0.3c-4.6-1.3-7.3-4.9-7.3-10V67.8c0-5.1,2.7-8.7,7.3-10c0.4-0.1,0.7-0.2,1.1-0.3
		c0.7-0.1,1.5-0.2,2.4-0.3l0,0l0,0l1.8,2.4l2.7,3.7c-1.8,0.1-3.3,0.5-4.7,1.3c-0.4,0.3-0.9,0.5-1.3,0.9c-2.1,1.8-3.3,4.5-3.4,8.1
		l0,1c-0.1,1.8-0.1,3.3-0.2,5.3l0,1.2l1.2,0.2c6.4,0.9,12.2,2.5,17.3,4.7l0.5,0.2l0.5-0.2c5-2.2,10.9-3.7,17.3-4.7l0.9-0.1l0.2,0
		l0-0.4l0-0.8c0-1.5-0.1-2.7-0.1-4c0-0.4,0-0.9,0-1.3l0-1c-0.1-3.6-1.2-6.3-3.4-8.1c-0.4-0.3-0.8-0.6-1.3-0.9
		c-1.3-0.8-2.9-1.2-4.7-1.3l3-4.1l1.5-2l0,0l0,0c1.2,0,2.4,0.2,3.5,0.5c0.7,0.2,1.4,0.5,2,0.8c3.4,1.7,5.3,4.9,5.3,9.3V112
		C117.4,116.3,115.4,119.6,112,121.2z M122.4,124.9c-0.5,1.9-1.5,3.3-2.5,4.2c-0.4,0.4-0.8,0.7-1.2,0.9v0v0c-1.4-0.9-3.9-3.1-4-7.2
		c1.7-1.2,3-2.7,4-4.6c0,0,0,0,0,0c0,0,0,0,0,0c0.9,1.9,2.2,3.4,4,4.6C122.6,123.6,122.5,124.3,122.4,124.9z M130.8,122.5
		c-0.8,0-1.6-0.1-2.4-0.3c-5.2-1-8.4-4.8-8.4-10.3V67.8c0-5.5,3.1-9.3,8.4-10.3c0.7-0.1,1.5-0.2,2.4-0.3l4.5,6.1
		c-1.9,0.1-3.6,0.6-5.1,1.5c-0.3,0.2-0.6,0.4-0.8,0.6c-1.9,1.6-3.3,4.4-3.4,8.1c-0.1,2.4-0.2,7.9-0.3,12.9c0,1.2,0,2.3,0,3.4
		c0,2.7,0,5.4,0.1,8.1c0.1,2.7,0.1,5.4,0.2,8.2c0,0.9,0.1,1.8,0.3,2.5c0.1,0.4,0.2,0.8,0.3,1.1c0.5,1.8,1.5,3.3,2.8,4.4
		c1.6,1.3,3.6,2,5.9,2.1L130.8,122.5z"/>
	<g>
		<g>
			<path class="st0" d="M19.6,112.2l-7.1,2.2l-0.5-1.6l7.1-2.2L19.6,112.2z"/>
			<path class="st0" d="M12.9,99.7c2.3-0.4,4,1.1,4.5,3.8l0.7,3.9l-7.3,1.4l-0.7-3.9C9.6,102.1,10.7,100.1,12.9,99.7z M13.3,101.4
				c-1.5,0.3-2,1.6-1.7,3.4l0.4,2.1l4.5-0.8l-0.4-2.1C15.7,102.2,14.8,101.1,13.3,101.4z"/>
			<path class="st0" d="M9,96.9l3.3-2.7l-3.6-2.3L8.6,90l5.1,3.3l2.5-0.1l0.1,1.7L13.8,95l-4.7,3.9L9,96.9z"/>
			<path class="st0" d="M15.1,80.6l1.5,0.1l-0.4,6.9l-7.4-0.5l0.1-1.7l6,0.4L15.1,80.6z"/>
			<path class="st0" d="M16.6,71.6l1.4,0.3l-1.2,6.8l-7.3-1.3l0.3-1.7l5.9,1.1L16.6,71.6z"/>
		</g>
		<g>
			<path class="st0" d="M170.5,80.3c-1.3,0.2-2.2-0.8-2.5-2.5l-0.9-5.5l7.3-1.3l0.9,5c0.3,1.8-0.2,3-1.4,3.2
				c-0.8,0.1-1.6-0.3-1.9-1.4C172.1,79.1,171.7,80.1,170.5,80.3z M170.4,78.6c0.7-0.1,0.8-0.7,0.6-1.6l-0.6-3.5l-1.8,0.3l0.6,3.5
				C169.4,78.2,169.7,78.7,170.4,78.6z M171.7,73.2l0.5,3.1c0.2,0.9,0.4,1.5,1.1,1.3c0.7-0.1,0.7-0.7,0.6-1.6l-0.5-3.1L171.7,73.2z"
				/>
			<path class="st0" d="M168.9,89.5l2.5-2.2l-0.1-2.7l-2.5,0.1l-0.1-1.7l7.4-0.2l0.2,5.1c0.1,1.8-0.7,3.2-2.4,3.3
				c-1.3,0-2.1-0.8-2.4-2l-2.6,2.4L168.9,89.5z M172.8,87.9c0,0.9,0.3,1.5,1.1,1.5c0.8,0,1-0.7,1-1.6l-0.1-3.4l-2.1,0.1L172.8,87.9z
				"/>
			<path class="st0" d="M175.3,103l-7.4-0.8l0.2-1.5L174,96l-5.3-0.6l0.2-1.6l7.4,0.8l-0.2,1.8l-5.6,4.4l5.1,0.6L175.3,103z"/>
			<path class="st0" d="M168.8,114.3c-2.2-0.6-3.1-2.7-2.4-5.4l1-3.8l7.2,1.9l-1,3.8C172.8,113.5,171,114.9,168.8,114.3z
				 M169.2,112.6c1.5,0.4,2.5-0.6,3-2.3l0.5-2.1l-4.4-1.2l-0.5,2.1C167.3,110.9,167.7,112.2,169.2,112.6z"/>
		</g>
		<path class="st0" d="M2.3,89.4c0-7.4,0.9-14.7,2.6-21.6l-1.3-0.3C1.9,74.5,1,81.9,1,89.4c0,9.8,1.5,19.3,4.4,28.2l1.3-0.4
			C3.8,108.4,2.3,99.1,2.3,89.4z"/>
		<path class="st0" d="M181,66.1l-1.3,0.4c1.9,7.3,2.9,15,2.9,23c0,10.3-1.7,20.3-4.9,29.5l1.3,0.4c3.3-9.4,5-19.5,5-29.9
			C184,81.4,183,73.5,181,66.1z"/>
		<path class="st0" d="M161.5,89.4c0,7.9-1.3,15.6-3.8,22.7l1.3,0.4c2.6-7.3,3.9-15.1,3.9-23.2c0-6.1-0.8-12-2.2-17.6l-1.3,0.4
			C160.8,77.7,161.5,83.5,161.5,89.4z"/>
		<path class="st0" d="M25.4,110.8l1.3-0.4c-2.1-6.6-3.2-13.7-3.2-20.9c0-5.9,0.7-11.6,2.1-17l-1.3-0.3c-1.4,5.5-2.1,11.4-2.1,17.3
			C22.1,96.8,23.3,104,25.4,110.8z"/>
	</g>
</g>
</svg>
