<?xml version="1.0" encoding="utf-8"?>
<!-- Generator: Adobe Illustrator 25.4.1, SVG Export Plug-In . SVG Version: 6.00 Build 0)  -->
<svg version="1.1" id="Layer_1" xmlns="http://www.w3.org/2000/svg" xmlns:xlink="http://www.w3.org/1999/xlink" x="0px" y="0px"
	 viewBox="0 0 650 50" style="enable-background:new 0 0 650 50;" xml:space="preserve">
<style type="text/css">
	.st0{fill:#F2EBD1;}
</style>
<g>
	<path class="st0" d="M32.1,0.7h-7.9c0.2,3.9,0.4,7.9,0.5,12c-2.7,0.1-5.4,0.1-8.2,0.1c-2.8,0-5.5,0-8.2-0.1c0.1-4.1,0.3-8.1,0.5-12
		H1C1.4,7.2,1.6,14,1.6,21S1.4,34.9,1,41.4h7.9C8.5,34.9,8.3,28,8.3,21c0-0.8,0-1.5,0-2.2c2.7-0.1,5.5-0.1,8.2-0.1
		c2.8,0,5.5,0,8.2,0.1c0,0.7,0,1.5,0,2.2c0,7-0.2,13.8-0.6,20.3h7.9C31.7,34.9,31.5,28,31.5,21S31.7,7.2,32.1,0.7z"/>
	<path class="st0" d="M86.2,41.4H94C93.6,34.9,93.4,28,93.4,21S93.6,7.2,94,0.7h-7.9C86.5,7.2,86.7,14,86.7,21S86.5,34.9,86.2,41.4z
		"/>
	<path class="st0" d="M73.1,35.5C67.3,35.8,62.3,36,56.2,36c-0.8,0-1.5,0-2.3,0c-0.2-4.5-0.3-9.2-0.3-14c0.1,0,0.1,0,0.2,0
		c6.2,0,12.2,0.2,17.9,0.5v-6.9c-5.7,0.3-11.7,0.5-17.9,0.5c-0.1,0-0.1,0-0.2,0c0-3.4,0.1-6.8,0.3-10.1c0.4,0,0.9,0,1.3,0
		c6.2,0,10.2,0.2,15.9,0.5V0.7H46.2C46.6,7.2,46.8,14,46.8,21s-0.2,13.8-0.6,20.3l26.8,0V35.5z"/>
	<path class="st0" d="M181.3,35.5c-5.7,0.3-10.7,0.5-16.9,0.5c-0.8,0-1.5,0-2.3,0c-0.2-4.9-0.3-9.9-0.3-15c0-7,0.2-13.8,0.6-20.3
		h-7.9C154.8,7.2,155,14,155,21s-0.2,13.8-0.6,20.3l26.8,0V35.5z"/>
	<path class="st0" d="M203.6-0.1c-6.7,0-17.4,3.9-17.4,21.1c0,14.3,8.8,21.1,17.4,21.1c8.6,0,17.4-6.9,17.4-21.1
		C220.9,3.8,210.2-0.1,203.6-0.1z M203.6,36.5c-6.2,0-9.5-5.1-9.5-15.5c0-12.5,4.7-15.5,9.5-15.5c4.8,0,9.5,3,9.5,15.5
		C213.1,31.4,209.8,36.5,203.6,36.5z"/>
	<path class="st0" d="M317.6,0.7h-9.6c-2.8,6.9-5.7,13.9-9,21.1c-0.8,1.7-1.6,3.5-2.4,5.2c-0.9-1.9-1.8-3.9-2.7-5.9
		c-3.1-6.9-6-13.8-8.7-20.4l-2.5,0h-6.9c0.3,6.5,0.5,13.3,0.5,20.3c0,7-0.2,13.8-0.5,20.3h6.9c-0.3-6.5-0.5-13.3-0.5-20.3
		c0-3.1,0-6.2,0.1-9.2c1.9,3.9,3.8,7.9,5.6,12c1.7,3.8,3.4,7.6,4.9,11.3c0.9,2.1,1.8,4.2,2.6,6.3h1.6c1-2.4,2-4.8,3-7.3
		c1.4-3.3,2.8-6.6,4.3-9.9c1.9-4.3,3.8-8.4,5.8-12.5c0.1,3.1,0.1,6.2,0.1,9.3c0,7-0.2,13.8-0.6,20.3h7.9C317.2,34.9,317,28,317,21
		S317.2,7.2,317.6,0.7z"/>
	<path class="st0" d="M133,22.9c-0.1-0.1-0.1-0.3-0.2-0.4c3.9-1.5,6.8-4.5,6.8-9.7c0-8.9-6.3-12.1-15.4-12.1l0,0h-14.6
		c0.4,6.5,0.6,13.3,0.6,20.3s-0.2,13.8-0.6,20.3h7.9c-0.3-5.7-0.5-11.6-0.6-17.6c0.1,0,0.1,0,0.2,0c3,0,5.9,0.1,8.8,0.1
		c0.2,0.5,0.5,1.1,0.7,1.6c2.3,5.4,4.4,10.7,6.3,15.8h9C139,35.5,135.7,29.4,133,22.9z M116.8,17.9c0-4,0.1-8,0.3-11.8
		c0.4,0,0.9,0,1.3,0c2.2,0,4,0,5.8,0.1c5.7,0.2,8.6,2.4,8.6,6.1c0,4.4-3.6,5.8-6.6,5.8c-3.1,0-6.3,0-9.3,0
		C117,17.9,116.9,17.9,116.8,17.9z"/>
	<path class="st0" d="M606.8,22.9c-0.1-0.1-0.1-0.3-0.2-0.4c3.9-1.5,6.8-4.5,6.8-9.7c0-8.9-6.3-12.1-15.4-12.1l0,0h-14.6
		C583.8,7.2,584,14,584,21s-0.2,13.8-0.6,20.3h7.9c-0.3-5.7-0.5-11.6-0.6-17.6c0.1,0,0.1,0,0.2,0c3,0,5.9,0.1,8.8,0.1
		c0.2,0.5,0.5,1.1,0.7,1.6c2.3,5.4,4.4,10.7,6.3,15.8h9C612.9,35.5,609.6,29.4,606.8,22.9z M590.7,17.9c0-4,0.1-8,0.3-11.8
		c0.4,0,0.9,0,1.3,0c2.2,0,4,0,5.8,0.1c5.7,0.2,8.6,2.4,8.6,6.1c0,4.4-3.6,5.8-6.6,5.8c-3.1,0-6.3,0-9.3,0
		C590.9,17.9,590.8,17.9,590.7,17.9z"/>
	<path class="st0" d="M247.6-0.1c-6.7,0-17.4,3.9-17.4,21.1c0,14.3,8.8,21.1,17.4,21.1c8.6,0,17.4-6.9,17.4-21.1
		C265,3.8,254.2-0.1,247.6-0.1z M247.6,36.5c-6.2,0-9.5-5.1-9.5-15.5c0-12.5,4.7-15.5,9.5-15.5c4.8,0,9.5,3,9.5,15.5
		C257.1,31.4,253.8,36.5,247.6,36.5z"/>
	<path class="st0" d="M526.9,35.5c-5.7,0.3-10.7,0.5-16.9,0.5c-0.8,0-1.5,0-2.3,0c-0.2-4.5-0.3-9.2-0.3-14c0.1,0,0.1,0,0.2,0
		c6.2,0,12.2,0.2,17.9,0.5v-6.9c-5.7,0.3-11.7,0.5-17.9,0.5c-0.1,0-0.1,0-0.2,0c0-3.4,0.1-6.8,0.3-10.1c0.4,0,0.9,0,1.3,0
		c6.2,0,10.2,0.2,15.9,0.5V0.7h-24.8c0.4,6.5,0.6,13.3,0.6,20.3c0,7-0.2,13.8-0.6,20.3l26.8,0V35.5z"/>
	<path class="st0" d="M485.6,23c0-7,0.2-15.8,0.6-22.3h-7.9c0.4,6.5,0.6,13.3,0.6,20.3v0l0,0c0,10.9-1.1,15.5-8.5,15.5
		c-7.4,0-8.5-4.5-8.5-15.5l0,0v0c0-7,0.2-13.8,0.6-20.3h-7.9c0.4,6.5,0.6,15.3,0.6,22.3c0,6.5-0.6,11-0.6,11
		c6.2,3.9,8.7,8.2,15.8,8.2c7.1,0,9.6-4.3,15.8-8.2C486.2,34,485.6,29.5,485.6,23z"/>
	<path class="st0" d="M569.8,23c0-7,0.2-15.8,0.6-22.3h-7.9c0.4,6.5,0.6,13.3,0.6,20.3v0l0,0c0,10.9-1.1,15.5-8.5,15.5
		c-7.4,0-8.5-4.5-8.5-15.5l0,0v0c0-7,0.2-13.8,0.6-20.3h-7.9c0.4,6.5,0.6,15.3,0.6,22.3c0,6.5-0.6,11-0.6,11
		c6.2,3.9,8.7,8.2,15.8,8.2c7.1,0,9.6-4.3,15.8-8.2C570.4,34,569.8,29.5,569.8,23z"/>
	<path class="st0" d="M389.1,41.4h7.9c-0.4-6.5-0.6-13.3-0.6-20.3s0.2-13.8,0.6-20.3h-7.9c0.4,6.5,0.6,13.3,0.6,20.3
		S389.5,34.9,389.1,41.4z"/>
	<path class="st0" d="M379.3,35.5c-5.7,0.3-10.7,0.5-16.9,0.5c-0.8,0-1.5,0-2.3,0c-0.2-4.9-0.3-9.9-0.3-15c0-7,0.2-13.8,0.6-20.3
		h-7.9C352.8,7.2,353,14,353,21c0,7-0.2,13.8-0.6,20.3l26.8,0V35.5z"/>
	<path class="st0" d="M443.2,21c0-17-10.7-20.9-17.4-20.9c-6.7,0-17.4,3.8-17.4,20.9c0,12.2,6.5,18.9,13.8,20.5
		c-0.1,2.9-0.2,5.8-0.4,8.6h7.9c-0.2-2.8-0.3-5.7-0.4-8.6C436.6,39.9,443.2,33.2,443.2,21z M425.8,36.3c-6.2,0-9.5-5.1-9.5-15.3
		c0-12.4,4.7-15.3,9.5-15.3c4.8,0,9.5,2.9,9.5,15.3C435.3,31.3,432,36.3,425.8,36.3z"/>
	<path class="st0" d="M638.3,17c-3.3-2.1-7.1-4.2-7.1-7.2c0-1.7,1.3-3.6,5.2-3.6c1.3,0,6,0.6,10.6,3.5l-0.1-0.8l-0.5-6.5l-0.1-0.9
		c-2.6,0.1-6.7-1.2-10-1.2c-11.3,0-12.2,7.5-12.2,10c0,5.9,5.5,9.4,10.3,12.5c3.7,2.3,7.5,5.6,7.5,8.1c0,2.7-1.7,5.1-6.6,5.1
		c0,0,0,0,0,0c-2.3,0-8-1.9-12.1-5.2l0.6,9c2.5,0.5,6.9,1.9,11.5,1.9l0,0h0c8.1,0,13.5-4.5,13.5-11.5C649,23.8,643.3,20.2,638.3,17z
		"/>
</g>
</svg>
