<?xml version="1.0" standalone="no"?>
<!DOCTYPE svg PUBLIC "-//W3C//DTD SVG 20010904//EN"
 "http://www.w3.org/TR/2001/REC-SVG-20010904/DTD/svg10.dtd">
<svg version="1.0" xmlns="http://www.w3.org/2000/svg"
 width="568.000000pt" height="568.000000pt" viewBox="0 0 568.000000 568.000000"
 preserveAspectRatio="xMidYMid meet">
<metadata>
Created by potrace 1.11, written by Peter Selinger 2001-2013
</metadata>
<g transform="translate(0.000000,568.000000) scale(0.100000,-0.100000)"
fill="#000000" stroke="none">
<path d="M1265 5249 c-144 -96 -228 -231 -269 -430 l-6 -26 -81 24 c-45 13
-134 28 -197 33 -114 10 -116 10 -138 -12 -29 -31 -497 -669 -492 -672 1 -2
53 5 113 16 138 24 264 20 347 -11 124 -48 207 -169 228 -331 15 -126 24
-1320 11 -1690 -11 -348 -21 -412 -74 -501 -38 -63 -95 -109 -174 -140 -51
-21 -74 -23 -188 -23 -71 1 -162 8 -202 16 -48 10 -70 11 -66 4 14 -25 495
-676 503 -681 16 -10 232 16 307 38 l80 23 13 -65 c29 -147 160 -329 295 -410
l57 -35 57 29 c31 16 89 62 132 105 86 85 138 177 166 295 9 39 17 72 19 73 1
2 40 -6 86 -17 46 -12 130 -26 188 -31 102 -10 105 -9 126 13 23 23 494 663
494 670 0 3 -30 -2 -68 -11 -40 -9 -120 -15 -202 -16 -118 0 -142 2 -192 22
-124 50 -208 171 -227 329 -6 45 -13 255 -17 466 l-7 385 119 -29 c330 -80
560 -172 743 -297 l74 -51 41 28 c184 125 432 228 750 311 l149 39 -7 -357
c-4 -196 -11 -399 -16 -450 -22 -213 -96 -324 -254 -379 -65 -23 -268 -23
-368 -1 -38 8 -68 12 -68 9 1 -7 459 -632 491 -669 17 -20 25 -22 91 -16 111
8 206 25 266 45 39 13 54 15 56 6 53 -201 89 -271 190 -372 40 -38 97 -83 129
-100 l57 -30 43 24 c157 88 262 226 304 398 9 38 17 73 19 80 2 9 17 7 56 -6
58 -20 151 -36 260 -46 62 -5 69 -4 87 17 30 36 490 662 491 668 0 3 -46 -2
-102 -12 -179 -30 -321 -18 -413 37 -52 30 -122 105 -142 153 -38 88 -43 142
-54 657 -9 390 -9 612 0 945 12 469 20 568 52 662 69 206 247 281 547 230 62
-10 111 -15 110 -10 -7 19 -494 677 -505 682 -26 11 -235 -15 -308 -38 -53
-17 -77 -21 -79 -13 -2 7 -9 37 -15 67 -20 93 -86 213 -160 289 -63 65 -166
141 -192 141 -28 0 -129 -69 -189 -129 -88 -89 -154 -218 -174 -342 l-6 -36
-82 24 c-102 29 -297 48 -314 30 -19 -19 -504 -681 -501 -683 1 -1 34 5 72 14
43 9 120 16 200 16 113 0 138 -3 187 -22 78 -31 154 -102 189 -175 35 -75 47
-152 53 -358 l5 -166 -147 -28 c-260 -49 -486 -111 -679 -187 l-102 -40 -128
46 c-184 68 -411 131 -620 173 l-182 37 5 156 c10 286 32 370 123 461 85 84
141 104 306 103 80 0 157 -7 200 -16 39 -9 71 -15 72 -14 1 1 -112 158 -253
349 l-255 346 -67 -5 c-104 -8 -201 -25 -259 -45 l-53 -18 -5 27 c-25 125 -81
241 -157 326 -56 63 -181 156 -209 156 -9 0 -52 -23 -94 -51z m159 -175 c86
-86 130 -174 145 -291 l8 -56 -82 -81 c-45 -45 -96 -105 -112 -134 l-31 -53
-45 68 c-25 38 -76 97 -112 133 l-68 64 6 62 c7 76 33 144 82 218 37 56 115
126 140 126 7 0 38 -25 69 -56z m2982 -7 c67 -69 115 -157 133 -245 13 -63 14
-112 3 -112 -17 0 -145 -137 -179 -193 l-36 -57 -30 52 c-16 29 -67 90 -113
135 l-83 81 10 66 c11 80 32 135 77 204 38 58 116 132 140 132 9 0 44 -28 78
-63z m-3529 -402 c147 -46 266 -144 329 -270 66 -135 64 -69 64 -1556 0 -1308
-1 -1348 -20 -1423 -62 -243 -244 -392 -519 -424 l-73 -9 -119 159 c-66 87
-122 164 -124 171 -4 8 21 17 77 28 110 21 190 61 261 128 72 68 120 153 148
257 28 108 38 409 38 1139 0 661 -10 992 -34 1080 -26 93 -71 179 -127 241
-83 90 -167 134 -303 157 l-73 12 126 174 126 174 72 -6 c39 -4 107 -18 151
-32z m1284 -123 c64 -86 119 -162 122 -168 4 -7 -22 -17 -74 -27 -180 -35
-295 -120 -368 -270 -56 -115 -68 -191 -77 -482 l-7 -250 125 -18 c313 -45
633 -131 875 -234 l81 -35 94 37 c235 94 539 176 818 222 l172 28 -7 250 c-8
291 -20 367 -76 483 -73 150 -176 227 -357 267 l-94 21 124 167 c141 190 125
182 276 152 175 -35 333 -148 401 -286 70 -145 66 -43 66 -1554 0 -1300 -1
-1363 -19 -1430 -52 -196 -173 -324 -368 -389 -42 -14 -111 -30 -152 -34 l-76
-8 -126 169 c-69 93 -124 170 -122 171 2 1 41 9 88 19 211 42 349 172 405 382
21 77 32 289 40 758 6 338 5 377 -9 377 -32 0 -316 -62 -441 -96 -213 -59
-439 -151 -597 -246 l-38 -22 -37 22 c-188 112 -460 216 -741 283 -124 30
-273 59 -301 59 -11 0 -12 -64 -6 -377 8 -469 19 -681 40 -758 56 -210 194
-340 405 -382 47 -10 86 -18 88 -19 2 -1 -53 -78 -122 -171 l-126 -169 -76 8
c-268 29 -455 181 -520 423 -18 67 -19 130 -19 1430 0 1269 1 1364 18 1425 46
169 140 287 287 358 88 43 192 70 270 71 l45 0 116 -157z m2979 -2 c67 -88
123 -166 125 -173 4 -8 -21 -17 -79 -28 -213 -42 -348 -173 -408 -398 -27
-102 -37 -428 -37 -1201 0 -877 9 -1007 82 -1145 74 -139 198 -229 362 -261
44 -9 82 -18 84 -20 2 -1 -52 -78 -120 -170 l-123 -167 -72 6 c-212 18 -397
135 -480 302 -66 135 -64 69 -64 1556 0 1308 1 1348 20 1423 61 241 242 390
515 425 39 4 71 9 72 10 2 0 57 -71 123 -159z m-3644 -3507 l83 -81 -10 -66
c-11 -80 -32 -135 -77 -204 -38 -58 -116 -132 -140 -132 -29 0 -137 122 -169
190 -42 89 -70 230 -45 230 17 0 145 137 179 193 l36 57 30 -52 c16 -29 67
-90 113 -135z m2877 119 c25 -37 76 -96 112 -132 l68 -64 -6 -62 c-7 -76 -33
-144 -82 -218 -37 -56 -115 -126 -140 -126 -21 0 -122 108 -154 163 -35 63
-50 110 -60 184 l-8 56 86 86 c48 47 98 107 111 134 14 26 26 47 27 47 1 0 22
-30 46 -68z"/>
</g>
</svg>
