<?xml version="1.0" encoding="utf-8"?>
<!-- Generator: Adobe Illustrator 20.1.0, SVG Export Plug-In . SVG Version: 6.00 Build 0)  -->
<svg version="1.1" id="Layer_1" xmlns="http://www.w3.org/2000/svg" xmlns:xlink="http://www.w3.org/1999/xlink" x="0px" y="0px"
	 viewBox="0 0 71 63" style="enable-background:new 0 0 71 63;" xml:space="preserve">
<style type="text/css">
	.st0{fill:#333533;}
	.st1{fill:#FFF7F0;}
</style>
<path class="st0" d="M53.7,62.1l0.4,0.2l0.4-0.2c2.4-1.2,3.9-3.5,4.2-6.2c1.3,0.5,2.8,0.8,4.4,0.8v0h0.5l6.4-8.7
	c0,0-1.8,0.5-3.8,0.5c-1.1,0-2.4-0.3-3.4-1.1c-1.1-0.9-1.7-2.4-1.7-4.4c-0.1-4-0.2-7.7-0.2-11.5c0-3.7,0.1-7.1,0.2-10.6l0.1-0.9
	c0.1-2,0.6-3.5,1.7-4.4c1-0.8,2.3-1.1,3.4-1.1c1.5,0,3.7,0.5,3.7,0.5l-6.4-8.7h-0.5c-1.7,0-3.1,0.3-4.4,0.8
	c-0.3-2.7-1.9-4.9-4.2-6.2l-0.4-0.2l-0.4,0.2c-2.4,1.2-3.9,3.5-4.2,6.2c-1.3-0.5-2.8-0.8-4.4-0.8h-0.5l-6.4,8.7c0,0,1.8-0.5,3.7-0.5
	c1.4,0,2.6,0.4,3.4,1.1c1.1,0.9,1.7,2.4,1.7,4.4l0,0.7c0,1,0.1,1.9,0.1,2.9c-4.3,0.7-8.2,1.7-11.6,3.2c-3.4-1.4-7.3-2.5-11.6-3.2
	c0-1,0.1-1.9,0.1-2.9l0-0.7c0.1-2,0.6-3.5,1.7-4.4c0.8-0.7,2-1.1,3.4-1.1c1.9,0,3.7,0.5,3.7,0.5l-6.4-8.7H26c-1.7,0-3.1,0.3-4.4,0.8
	c-0.3-2.7-1.9-4.9-4.2-6.2l-0.4-0.2l-0.4,0.2c-2.4,1.2-3.9,3.5-4.2,6.2c-1.3-0.5-2.8-0.8-4.4-0.8H7.3l-6.4,8.7c0,0,2.2-0.5,3.7-0.5
	c1.2,0,2.4,0.2,3.4,1.1c1.1,0.9,1.7,2.4,1.7,4.4l0,0.9c0.1,3.5,0.2,6.9,0.2,10.6c0,3.9-0.1,7.5-0.2,11.5c-0.1,2-0.6,3.5-1.7,4.4
	c-1,0.8-2.2,1.1-3.4,1.1c-2,0-3.8-0.5-3.8-0.5l6.4,8.7h0.5c1.7,0,3.1-0.3,4.4-0.8c0.3,2.7,1.9,4.9,4.2,6.2l0.4,0.2l0.4-0.2
	c2.4-1.2,3.9-3.5,4.2-6.2c1.3,0.5,2.8,0.8,4.4,0.8h0.5l6.4-8.7c0,0-1.7,0.5-3.7,0.5c-1.2,0-2.4-0.2-3.4-1.1
	c-1.1-0.9-1.7-2.4-1.7-4.4c-0.1-2.7-0.2-6.3-0.2-9.6c0.4,0.1,0.8,0.2,1.2,0.3c4.1,0.9,7.6,2.3,9.9,4l0.6,0.4l0.6-0.4
	c2.3-1.6,5.8-3,9.9-4c0.4-0.1,0.8-0.2,1.2-0.3c0,3.3-0.1,6.9-0.2,9.6c-0.1,2-0.6,3.5-1.7,4.4c-1,0.8-2.3,1.1-3.4,1.1
	c-2,0-3.7-0.5-3.7-0.5l6.4,8.7H45c1.7,0,3.1-0.3,4.4-0.8C49.8,58.6,51.3,60.9,53.7,62.1"/>
<path class="st1" d="M59.4,43.1c-0.2-4-0.2-7.7-0.2-11.6c0-4.1,0.2-9.5,0.2-11.6c0.1-2.6,1.1-4.7,2.4-5.8c1.1-0.9,2.5-1.4,4.2-1.5
	l-3.2-4.3c-4.8,0.2-7.7,3-7.7,7.5v31.5c0,4.5,2.9,7.3,7.7,7.5l3.2-4.3c-1.7-0.1-3.1-0.6-4.2-1.5C60.2,47.6,59.4,45.7,59.4,43.1
	 M54.1,11.3c0.6-1.3,1.6-2.4,2.8-3.3c-0.1-3-1.8-4.5-2.8-5.2c-1,0.6-2.8,2.2-2.8,5.2C52.5,8.9,53.5,10,54.1,11.3 M16.9,11.3
	c0.6-1.3,1.6-2.4,2.8-3.3c-0.1-3-1.8-4.5-2.8-5.2c-1,0.6-2.8,2.2-2.8,5.2C15.3,8.9,16.2,10,16.9,11.3 M15.9,15.7
	c0-4.5-2.9-7.3-7.7-7.5L5,12.6c1.7,0.1,3.1,0.6,4.2,1.5c1.3,1.1,2.4,3.2,2.4,5.8c0.1,2.2,0.2,7.5,0.2,11.6c0,3.9-0.1,7.6-0.2,11.6
	c-0.1,2.6-0.9,4.5-2.4,5.8c-1.1,0.9-2.5,1.4-4.2,1.5l3.2,4.3c4.8-0.2,7.7-3,7.7-7.5V15.7z M16.9,51.7c-0.6,1.3-1.6,2.4-2.8,3.3
	c0.1,3,1.8,4.5,2.8,5.2c1-0.6,2.8-2.2,2.8-5.2C18.5,54.1,17.5,53,16.9,51.7 M53.2,15.7c0-4.5-2.9-7.3-7.7-7.5l-3.2,4.3
	c1.7,0.1,3.1,0.6,4.2,1.5c1.5,1.3,2.3,3.2,2.4,5.8l0,0.7c0,1.3,0.1,2.3,0.1,3.8l0,0.9l-0.8,0.1c-4.6,0.7-8.7,1.8-12.3,3.3l-0.4,0.2
	l-0.4-0.2c-3.6-1.6-7.8-2.7-12.3-3.3l-0.8-0.1l0-0.9c0-1.4,0.1-2.5,0.1-3.8l0-0.7c0.1-2.6,0.9-4.5,2.4-5.8c1.1-0.9,2.6-1.4,4.2-1.5
	l-3.2-4.3c-4.8,0.2-7.7,3-7.7,7.5v31.5c0,4.5,2.9,7.3,7.7,7.5l3.2-4.3c-1.7-0.1-3.1-0.6-4.2-1.5c-1.5-1.3-2.3-3.2-2.4-5.8
	c-0.1-3.1-0.2-7.2-0.2-10.8l0-1.1l1.1,0.2c0.8,0.1,1.6,0.3,2.4,0.5c4,0.9,7.6,2.3,10.1,3.9c2.5-1.6,6-3,10.1-3.9
	c0.8-0.2,1.6-0.3,2.4-0.5l1.1-0.2l0,1.1c0,3.6-0.1,7.8-0.2,10.8c-0.1,2.6-0.9,4.5-2.4,5.8c-1.1,0.9-2.5,1.4-4.2,1.5l3.2,4.3
	c4.8-0.2,7.7-3,7.7-7.5V15.7z M54.1,51.7c-0.6,1.3-1.6,2.4-2.8,3.3c0.1,3,1.8,4.5,2.8,5.2c1-0.6,2.8-2.2,2.8-5.2
	C55.7,54.1,54.8,53,54.1,51.7"/>
</svg>
